<svg xmlns="http://www.w3.org/2000/svg" width="18" height="15.482" viewBox="0 0 18 15.482">
  <g id="back" transform="translate(-3 -4.518)">
    <path id="Path_3" data-name="Path 3" d="M19.164,19.547A7.34,7.34,0,0,0,13,16.063V17.5a1.986,1.986,0,0,1-.586,1.414,2.05,2.05,0,0,1-2.823,0L3.3,12.712a1,1,0,0,1,0-1.425l6.288-6.2a2.048,2.048,0,0,1,2.829,0A1.99,1.99,0,0,1,13,6.5V8.2A9.982,9.982,0,0,1,21,18v1a1,1,0,0,1-.714.958A1.042,1.042,0,0,1,20,20,1,1,0,0,1,19.164,19.547Zm-7.141-5.536a10.605,10.605,0,0,1,6.758,2.121,7.985,7.985,0,0,0-6.893-6.08A8.164,8.164,0,0,0,11,10V6.5L5.424,12,11,17.5V14S11.738,14.01,12.023,14.011Z" fill="#0a376e"/>
  </g>
</svg>
