<?xml version="1.0" encoding="UTF-8"?>
<!DOCTYPE svg PUBLIC "-//W3C//DTD SVG 1.1//EN" "http://www.w3.org/Graphics/SVG/1.1/DTD/svg11.dtd">
<!-- Creator: CorelDRAW 2018 (64-Bit) -->
<svg xmlns="http://www.w3.org/2000/svg" xml:space="preserve" width="181.602mm" height="181.602mm" version="1.1" style="shape-rendering:geometricPrecision; text-rendering:geometricPrecision; image-rendering:optimizeQuality; fill-rule:evenodd; clip-rule:evenodd"
viewBox="0 0 18268.74 18268.74"
 xmlns:xlink="http://www.w3.org/1999/xlink">
 <defs>
  <style type="text/css">
   <![CDATA[
    .fil4 {fill:#FEFEFE;fill-rule:nonzero}
    .fil1 {fill:#9D9E9E;fill-rule:nonzero}
    .fil0 {fill:#00A0E3;fill-rule:nonzero}
    .fil5 {fill:url(#id2)}
    .fil6 {fill:url(#id3)}
    .fil3 {fill:url(#id4)}
    .fil2 {fill:url(#id5)}
   ]]>
  </style>
     <mask id="id0">
  <linearGradient id="id1" gradientUnits="userSpaceOnUse" x1="5627.3" y1="12614.37" x2="4823.8" y2="11429.72">
   <stop offset="0" style="stop-opacity:1; stop-color:white"/>
   <stop offset="1" style="stop-opacity:0; stop-color:white"/>
  </linearGradient>
      <rect style="fill:url(#id1)" x="4174.41" y="11093.31" width="2905.22" height="2944.08"/>
     </mask>
  <linearGradient id="id2" gradientUnits="userSpaceOnUse" x1="9134.37" y1="18268.74" x2="9134.37" y2="0">
   <stop offset="0" style="stop-opacity:1; stop-color:#2B2A29"/>
   <stop offset="0.501961" style="stop-opacity:1; stop-color:#31927A"/>
   <stop offset="1" style="stop-opacity:1; stop-color:#0A251A"/>
  </linearGradient>
  <linearGradient id="id3" gradientUnits="userSpaceOnUse" xlink:href="#id2" x1="9134.37" y1="15913.15" x2="9134.37" y2="2355.6">
  </linearGradient>
  <linearGradient id="id4" gradientUnits="userSpaceOnUse" x1="9134.41" y1="18268.7" x2="9134.41" y2="0">
   <stop offset="0" style="stop-opacity:1; stop-color:#023F3D"/>
   <stop offset="0.329412" style="stop-opacity:1; stop-color:#207D6C"/>
   <stop offset="0.501961" style="stop-opacity:1; stop-color:#4FB68F"/>
   <stop offset="0.670588" style="stop-opacity:1; stop-color:#207D6C"/>
   <stop offset="1" style="stop-opacity:1; stop-color:#0B6555"/>
  </linearGradient>
  <radialGradient id="id5" gradientUnits="userSpaceOnUse" gradientTransform="matrix(-0.819114 -0.00619472 0.0395272 -0.884143 14542 17223)" cx="8192.22" cy="9114.2" r="241.27" fx="8192.22" fy="9114.2">
   <stop offset="0" style="stop-opacity:1; stop-color:#FEFEFE"/>
   <stop offset="0.631373" style="stop-opacity:1; stop-color:#CDCECE"/>
   <stop offset="1" style="stop-opacity:1; stop-color:#9D9E9E"/>
  </radialGradient>
 </defs>
 <g id="Слой_x0020_1">
  <metadata id="CorelCorpID_0Corel-Layer"/>
  <g id="_2305531915760">
   <g>
    <path class="fil0" d="M6567.8 14037.39c-984.69,-515.49 -1814.39,-1326.32 -2348.77,-2358.41l-44.63 -87.82c-678.15,-1368.62 -737.44,-2882.8 -284.9,-4224.44 452.88,-1343.08 1418.15,-2513.41 2787.87,-3192.12l490.07 993.24c-1095.06,542.58 -1866.58,1477.54 -2228.3,2550.16 -361.39,1071.52 -314.98,2280.92 224.72,3375.3l3.89 7.89c426,859.68 1104.04,1533.05 1911.87,1956.06 1654.73,866.45 1037.65,1791.29 -511.83,980.13z"/>
    <polygon class="fil0" points="4150.21,8649.4 14113.48,8581.46 14117.92,9687.28 4154.65,9755.23 "/>
    <path class="fil1" d="M9823.98 14626.95c0,0 -1.12,0.11 -1.23,0.11 -1144.79,143.22 -2293.47,-87.27 -3272.6,-599.87l503.83 -984.8c440,230.38 945.06,401.69 1443.9,473.74l-0.66 -8347.18 -853.02 1.78 513.83 -1553.59 1665.28 -5.11 0.66 11014.92z"/>
    <path class="fil1" style="mask:url(#id0)" d="M6567.8 14037.39c-521.72,-273.12 -1000.12,-629.18 -1413.92,-1057.19 -4.45,-4.55 -8.99,-9.44 -13.44,-13.98 -361.28,-376.28 -673.26,-807.94 -921.4,-1287.24l-44.63 -87.82 989.46 -497.85 3.89 7.89c209.28,422.23 479.41,799.61 795.72,1124.36 4.56,4.67 9.1,9.44 13.66,13.99 324.42,330.08 697.13,605.43 1102.49,817.71l-511.83 980.13z"/>
    <path class="fil0" d="M11368.13 4069.35c670.82,295.78 1270.25,720.01 1768.87,1241.94 496.29,519.28 891.98,1137.14 1157.67,1822.39 552.79,1425.47 475.97,2939.41 -95.27,4234.43 -571.45,1295.46 -1638.18,2373.41 -3064.32,2926.54l-399.03 -1032.09c1138.57,-441.55 1991.14,-1304.12 2448.57,-2341.21 457.66,-1037.66 519.83,-2249.28 77.94,-3388.63 -211.84,-546.26 -529.04,-1040.65 -927.84,-1458 -396.48,-415.02 -875.44,-753.31 -1413.37,-990.58l446.77 -1014.78z"/>
    <polygon class="fil2" points="8497.33,4433.96 9823.43,4433.96 9823.76,13610.98 8497.77,13609.25 "/>
   </g>
   <path class="fil3" d="M9134.41 0c5044.73,0 9134.33,4089.65 9134.33,9134.37 0,5044.72 -4089.6,9134.33 -9134.33,9134.33 -5044.76,0 -9134.37,-4089.61 -9134.37,-9134.33 0,-5044.72 4089.61,-9134.37 9134.37,-9134.37zm0 2695.11c3556.27,0 6439.22,2883 6439.22,6439.26 0,3556.26 -2882.95,6439.26 -6439.22,6439.26 -3556.3,0 -6439.25,-2883 -6439.25,-6439.26 0,-3556.26 2882.95,-6439.26 6439.25,-6439.26z"/>
   <polygon class="fil4" points="2747.98,12678.56 1988.56,13092.82 2136.52,13363.94 1981.74,13448.45 1585.6,12721.93 1740.39,12637.65 1887.87,12908.29 2647.3,12494.01 "/>
   <polygon id="1" class="fil4" points="2434.96,12093.56 1472.37,12492.27 1176.59,11778.49 1339.48,11710.94 1554.69,12230.36 1768.17,12141.91 1567.95,11658.81 1730.12,11591.5 1930.33,12074.85 2192.22,11966.27 1969.4,11428.45 2131.82,11361.38 "/>
   <path id="2" class="fil4" d="M1779.82 11314.02l-65.5 -194.77c64.27,-27.42 107.69,-63.33 130.74,-107.23 22.8,-43.91 27.16,-97.03 12.84,-159.37 -15.28,-65.97 -40.75,-112.3 -76.41,-139.47 -35.66,-26.92 -72.05,-36.13 -109.64,-27.39 -23.77,5.58 -42.69,17.22 -56.27,35.17 -13.58,17.96 -22.55,45.84 -26.91,83.93 -2.67,25.95 -4.85,83.93 -6.54,174.15 -1.69,116.19 -17.45,200.85 -46.8,254.46 -41.48,75.19 -102.35,122 -182.65,140.44 -51.66,12.14 -103.32,8.5 -155.23,-10.41 -51.67,-18.91 -95.82,-53.12 -131.96,-102.83 -36.39,-49.73 -63.32,-113.52 -81.51,-191.63 -29.35,-127.34 -23.54,-229.7 17.44,-306.84 40.99,-77.37 107.69,-128.32 200.1,-153.06l56.28 202.77c-49.96,20.86 -83.18,48.28 -99.43,82.47 -16.26,33.97 -17.46,80.06 -4.37,137.55 13.83,59.65 36.88,103.31 69.14,131.45 20.62,17.96 44.14,24.01 70.35,17.95 24.01,-5.58 42.2,-20.38 54.56,-44.64 15.76,-30.8 24.01,-98.96 24.5,-204 0.46,-105.02 7.75,-184.34 21.81,-237.94 14.3,-53.61 40.02,-98.98 77.37,-136.09 37.34,-36.87 88.04,-62.82 152.33,-77.63 57.97,-13.58 116.18,-9.95 174.4,10.66 58.22,20.61 106.49,57.48 144.81,110.84 38.34,53.37 67.69,124.19 88.07,212.24 29.61,128.31 22.57,233.83 -20.83,316.05 -43.42,82.48 -120.3,143.6 -230.67,183.16z"/>
   <polygon id="3" class="fil4" points="1881.71,10006.07 1024.9,10124.29 1067.12,10430.44 892.45,10454.31 779.3,9634.62 953.97,9610.73 995.95,9915.92 1853,9797.69 "/>
   <path id="4" class="fil4" d="M1489.45 9399.63l-17.96 -204.65c68.59,-11.73 119.42,-36.23 151.74,-73.5 32.56,-37.5 49.3,-88.04 49.72,-151.84 0.65,-67.67 -13.18,-118.79 -41.48,-153.34 -28.31,-34.55 -61.63,-52.1 -99.95,-52.39 -24.73,-0.38 -45.57,6.76 -62.96,20.9 -17.63,14.4 -32.79,39.45 -45.97,75.18 -8.61,24.55 -24.34,80.65 -46.97,167.84 -28.81,112.45 -63.86,191.2 -105.12,236.27 -57.66,63.35 -127.86,94.73 -210.34,93.92 -52.86,-0.48 -102.43,-16.01 -148.17,-46.36 -45.99,-30.58 -80.65,-74.08 -104.21,-130.98 -23.56,-56.89 -35.05,-125.23 -34.45,-205.04 1.31,-130.75 30.92,-228.89 88.59,-294.41 57.9,-65.29 134.63,-99.37 230.43,-101.76l7.31 210.27c-53.57,8.49 -92.29,27.36 -115.92,56.82 -23.87,29.22 -35.79,73.44 -36.47,132.62 -0.44,61.12 11.67,109.1 36.35,143.91 15.86,22.25 37.27,33.55 64.18,33.9 24.75,0.13 45.8,-9.92 63.66,-30.63 22.43,-26.31 46.14,-90.45 71.35,-192.44 24.99,-102.01 50.58,-177.55 77.03,-226.19 26.21,-48.64 61.69,-86.65 106.66,-114.04 44.99,-27.37 100.48,-40.74 166.22,-40.09 59.67,0.69 115.31,17.64 167.13,51.36 51.82,33.47 89.88,80.83 114.67,141.59 24.8,60.77 36.8,136.39 36.02,226.87 -1.32,131.47 -32.61,232.29 -94.13,302.21 -61.27,69.91 -150.34,111.32 -266.96,124.02z"/>
   <polygon id="5" class="fil4" points="1900.67,7972.14 884.09,7745.56 952.39,7438.43 1686.98,7408.37 1034.02,7071.56 1102.81,6763.7 2119.39,6990.04 2077.03,7180.87 1276.54,7002.61 2032.04,7382.63 1988.02,7580.27 1142.79,7603.03 1943.28,7781.29 "/>
   <polygon id="6" class="fil4" points="2196.72,6809.28 1222.45,6440.62 1495.82,5718.42 1660.7,5780.74 1461.69,6306.49 1677.59,6388.06 1862.64,5898.98 2026.79,5961.07 1841.73,6450.14 2106.92,6550.49 2312.91,6006.29 2477.07,6068.37 "/>
   <path id="7" class="fil4" d="M1662.91 5389.49l188.15 -334.9c42.48,-75.45 80.72,-129.78 114.48,-162.73 45.59,-44.42 99.25,-74.34 160.52,-89.98 61.28,-15.41 126.76,-16.78 195.73,-3.85 69.2,12.69 146.28,43.03 231.21,90.78 74.72,42.01 133.95,87.49 177.41,136.47 53.25,59.84 88.56,122.45 105.68,187.35 13.15,49.16 13.01,105.68 0.05,169.55 -9.9,47.6 -34.05,105.24 -71.98,172.9l-193.91 344.88 -907.35 -510.46zm256.53 -96.88l600.93 338.16 76.79 -136.78c28.8,-51.37 46.77,-89.78 53.64,-115.79 9.51,-33.77 10.77,-65.56 4.04,-95.12 -6.73,-29.55 -27.05,-61.93 -60.74,-97.38 -33.69,-35.21 -85.58,-72.5 -155.66,-111.86 -70.11,-39.6 -127.5,-63.51 -171.94,-72.46 -44.69,-8.7 -83.73,-7.75 -117.15,2.65 -33.65,10.4 -63.85,30.71 -90.36,60.71 -20.23,22.42 -51.22,70.89 -93.23,145.61l-46.32 82.27z"/>
   <polygon id="8" class="fil4" points="3103.58,5008.14 2255.98,4402.71 2378.24,4231.5 3225.85,4837.17 "/>
   <path id="9" class="fil4" d="M3486.17 3918.27l181.88 -112.91c65.95,97.68 96.48,192.14 91.08,283.12 -5.39,91.23 -44.26,179.22 -116.88,264.22 -89.97,105.21 -199.84,161.04 -329.34,167.22 -129.75,6.19 -256.85,-43.9 -381.54,-150.28 -131.75,-112.9 -205.1,-234.32 -219.79,-364.76 -14.68,-130.43 25.26,-250.93 120.06,-361.98 82.74,-96.69 178.79,-151 287.64,-162.66 64.73,-6.86 136.36,7.6 215.12,43.85l-97.34 190.63c-49.11,-25.96 -98.15,-33.98 -147.36,-24.54 -49.19,9.2 -92.01,35.12 -128.18,77.74 -50.18,58.69 -70.01,124.28 -58.99,196.75 10.76,72.72 63.53,149.38 157.78,229.95 100.1,85.63 186.65,128.63 260.16,128.78 73.25,0.39 134.49,-28.29 183.69,-85.76 36.44,-42.62 54.15,-90.73 53.19,-144.34 -0.74,-53.84 -24.55,-111.95 -71.18,-175.04z"/>
   <polygon id="10" class="fil4" points="4033.8,3899.24 3307.47,3152.68 3458.29,3006.1 4184.61,3752.42 "/>
   <polygon id="11" class="fil4" points="4335.66,3610.93 3693.89,2790.22 3855.13,2664.24 4619.59,2949.58 4190.93,2401.61 4344.9,2281.21 4986.67,3101.7 4820.33,3231.8 4070.92,2955.44 4489.63,3490.55 "/>
   <polygon id="12" class="fil4" points="5175.49,2970.52 4664.39,2064.04 5336.57,1685.05 5423.01,1838.52 4933.82,2114.21 5047.14,2315.11 5502.19,2058.46 5588.38,2211.2 5133.33,2467.84 5272.28,2714.73 5778.64,2429.03 5864.85,2581.77 "/>
   <path id="13" class="fil4" d="M6068.23 1342.61l366.31 -116.43c82.79,-26.22 147.72,-39.95 195.02,-41.19 63.78,-1.35 123.3,13.34 178.78,43.8 55.49,30.72 104.26,74.34 146.09,130.85 41.81,56.51 77.67,131.24 107.1,224.22 25.95,81.83 38.28,155.49 36.73,221.23 -1.94,80.06 -18.74,149.77 -50.65,209.15 -23.98,45.02 -62.55,86.24 -115.45,124.16 -39.86,27.89 -96.95,53.71 -170.78,77.43l-377.44 119.9 -315.7 -993.12zm253.86 104.24l209.15 657.8 149.61 -47.7c56.16,-17.8 95.61,-33.8 118.32,-48.02 29.97,-18.37 52.64,-40.82 67.77,-66.87 15.36,-26.29 22.65,-63.92 22.12,-112.68 -0.77,-48.75 -13.28,-111.5 -37.51,-188.25 -24.47,-76.75 -50.04,-133.59 -76.7,-170.31 -26.66,-36.95 -55.68,-62.96 -87.55,-78.31 -31.63,-15.09 -67.56,-20.93 -107.56,-17.07 -30.06,2.62 -85.76,16.78 -167.6,42.73l-90.07 28.67z"/>
   <polygon id="14" class="fil4" points="7395.48,2016.22 7231.69,987.68 7994.3,866.22 8022.05,1040.11 7467.11,1128.48 7503.42,1356.55 8019.76,1274.41 8047.29,1447.58 7530.96,1529.94 7575.61,1809.72 8150.24,1718.11 8177.76,1891.52 "/>
   <polygon id="15" class="fil4" points="8355.16,1843.02 8347.53,802.14 8552.02,800.73 8982.98,1492.51 8977.97,797.54 9173.25,796.08 9180.89,1836.97 8969.84,1838.58 8545.35,1162.85 8550.44,1841.56 "/>
   <polygon id="16" class="fil4" points="9637.18,1842.72 9708.37,980.82 9400.71,955.51 9415.31,779.97 10239.39,848.29 10224.8,1023.58 9917.86,998.28 9846.41,1859.94 "/>
   <polygon id="17" class="fil4" points="10285.1,1918.79 10462.05,892.67 10669.22,928.46 10492.27,1954.57 "/>
   <path id="18" class="fil4" d="M10738.65 1636.06l201.62 39.33c-7.87,69.09 1.8,124.68 28.53,166.3 26.95,41.62 70.94,71.42 132.23,89.68 64.91,19.24 117.79,20.24 158.86,2.49 41.08,-17.75 67.18,-44.79 78.03,-81.59 7.15,-23.49 6.05,-45.81 -2.83,-66.49 -8.86,-20.65 -28.65,-42.1 -59.58,-64.81 -21.02,-15.15 -70.6,-45.72 -148.23,-91.47 -100.13,-58.96 -166.07,-114.35 -197.83,-166.42 -45,-72.99 -55.53,-149.21 -32.08,-228.18 15.04,-50.61 43.65,-93.89 85.55,-129.58 42.14,-35.68 93.67,-57.02 154.82,-63.99 60.93,-6.97 129.77,0.9 206.56,23.84 125.21,37.25 211.29,92.74 258.22,166.48 46.92,73.73 58.4,156.99 34.15,249.53l-203.98 -51.23c6.58,-53.81 -0.98,-96.07 -22.65,-126.97 -21.67,-30.92 -60.84,-54.89 -117.52,-71.67 -58.37,-17.51 -107.84,-19.21 -148.18,-4.86 -26,9.07 -42.58,26.46 -50.48,52.38 -6.9,23.49 -2.9,46.79 12.02,69.43 19.02,28.96 74.12,69.49 165.3,121.86 90.94,52.37 156.45,97.81 196.04,136.58 39.59,38.52 66.04,83.28 79.85,134.06 13.81,50.75 11.35,107.75 -7.4,170.71 -17.03,57.17 -48.8,106.01 -95.58,146.52 -46.53,40.52 -102.44,64.25 -167.73,71.19 -65.29,6.96 -141.4,-2.39 -228.12,-28.3 -125.94,-37.5 -214.18,-95.68 -264.48,-174.03 -50.07,-78.36 -65.35,-175.46 -45.13,-290.82z"/>
   <polygon id="19" class="fil4" points="11837.01,2342.6 12143.01,1533.19 11854.02,1423.73 11916.32,1258.84 12690.53,1551.84 12628.23,1716.5 12339.73,1607.52 12033.73,2416.94 "/>
   <path id="20" class="fil4" d="M12427.58 2609.13l510.48 -907.36 385.52 216.73c97.12,54.71 162.89,102.34 197.58,143.37 34.93,41.01 53.67,89.9 56.68,146.41 3,56.5 -10.73,111.64 -40.73,165.18 -38.4,68.15 -90.03,113.09 -154.91,134.84 -65.12,21.97 -140.6,16.13 -226.67,-17.08 26.48,45.45 44.93,89.24 55.13,131.38 10.44,42.15 17.41,110.76 21.62,205.81l11.14 239.34 -219.04 -123.11 -21.53 -272.04c-7.37,-96.98 -14.55,-159.52 -21.51,-187.6 -6.96,-28.11 -18.26,-51.07 -33.89,-68.69 -15.39,-17.87 -44.37,-38.55 -86.48,-62.06l-36.99 -20.88 -213.13 378.72 -183.27 -102.96zm477.75 -420.58l135.57 76.08c87.86,49.44 144.78,76.5 171.02,81.44 25.98,4.93 50.22,1.88 72.95,-9.42 22.49,-11.3 41.55,-30.33 56.9,-57.59 17.04,-30.66 22.68,-59.81 17.18,-87.67 -5.75,-28.11 -22.14,-52.74 -49.2,-74.41 -13.64,-10.59 -57.71,-36.53 -131.94,-78.28l-142.88 -80.4 -129.59 230.24z"/>
   <polygon id="21" class="fil4" points="13513.59,3271.05 13783.97,2926.49 13856.09,2217.28 14049.83,2369.21 13988.24,2844.36 14431.23,2668.72 14621.59,2817.97 13947.63,3057.07 13678.23,3400.41 "/>
   <path id="22" class="fil4" d="M14937.93 4079.59l130.71 -117.31 302.72 337.48 -308.83 277.25c-61.17,-4.57 -131.95,-27 -211.86,-67.55 -79.91,-40.55 -148.52,-92.59 -205.83,-156.39 -72.74,-81.12 -119.08,-167.07 -139.27,-258.1 -19.95,-90.8 -11.98,-179.65 24.14,-266.81 36.12,-87.15 91.24,-164.02 165.62,-230.65 80.89,-72.49 167.81,-120.05 261,-142.45 92.95,-22.39 185.66,-15.9 277.66,19.2 70.33,26.56 138.68,76.91 205.06,151.05 86.45,96.29 133.59,189.52 141.88,279.92 8.06,90.17 -16.44,175.04 -73.73,254.6l-168.49 -129.53c28.24,-45.13 39.72,-92.53 34.92,-142.45 -5.04,-49.93 -27.76,-97.53 -68.42,-142.54 -61.22,-68.36 -131.63,-103.41 -211.45,-104.91 -79.58,-1.5 -161.98,36.08 -247.19,112.74 -92.19,82.54 -142.91,164.72 -152.15,247.03 -9.23,82.08 15.9,156.33 75.18,222.77 29.39,32.73 65.52,59.83 107.92,81.3 42.39,21.46 83.26,35.66 122.87,42.84l98.44 -88.17 -160.91 -179.34z"/>
   <polygon id="23" class="fil4" points="15055.49,4843.15 15927.98,4275.51 16348.9,4922.31 16201.27,5018.49 15894.99,4547.7 15701.53,4673.52 15986.43,5111.58 15839.53,5207.03 15554.38,4769.22 15317.05,4923.68 15634.26,5410.96 15487.11,5506.66 "/>
   <polygon id="24" class="fil4" points="15591.25,5653.12 16539.17,5221.37 16623.8,5407.47 16167.6,6083.89 16800.67,5795.39 16881.63,5973.27 15933.71,6405.26 15846.13,6213.11 16290.28,5549.37 15672.2,5830.99 "/>
   <polygon id="25" class="fil4" points="16016.22,6616.89 17014.83,6321.29 17233.94,7061.72 17065.12,7111.81 16905.49,6572.9 16684.11,6638.53 16832.65,7139.89 16664.32,7189.74 16516.02,6688.37 16244.02,6768.81 16409.34,7326.6 16241.01,7376.45 "/>
   <polygon id="26" class="fil4" points="16315.51,7782.18 17167.91,7636.7 17115.97,7332.38 17289.7,7302.87 17428.63,8118.2 17254.91,8147.71 17203.21,7844.12 16350.81,7989.35 "/>
   <polygon id="27" class="fil4" points="16413.12,8419.22 17451.29,8335.12 17468.27,8544.6 16430.09,8628.94 "/>
   <path id="28" class="fil4" d="M16820.9 9502.79l-66.51 203.34c-113.19,-32.48 -197.11,-85.23 -251.52,-158.24 -54.43,-73.25 -81.29,-165.77 -80.1,-277.37 1.31,-138.26 49.55,-251.27 144.72,-339.52 95.42,-87.99 224.75,-131.27 388.49,-129.83 173.43,1.63 307.54,47.6 402.31,138.13 95,90.29 141.86,208.44 140.59,354.23 -1.36,127.11 -39.95,230.37 -115.75,309.07 -45.15,47.02 -109.27,81.75 -192.85,104.69l-47.76 -208.39c54.27,-11.89 97.1,-37.07 128.69,-76.02 31.6,-38.71 47.64,-85.84 48.12,-141.88 0.62,-77.14 -26.35,-139.84 -81.39,-188.58 -54.8,-48.51 -144.41,-73.33 -268.36,-74.46 -131.48,-1.35 -225.49,21.4 -281.78,68.23 -56.31,46.83 -84.66,108.08 -85.52,184.01 -0.48,55.79 16.71,103.98 51.84,144.57 35.11,40.6 90.79,69.94 166.79,88.02z"/>
   <polygon id="29" class="fil4" points="16377.6,10291.95 17385.93,10516.35 17340.24,10721.75 16503.33,10535.19 16389.57,11045.78 16218.16,11007.47 "/>
   <path id="30" class="fil4" d="M15867.89 12042.1l75.69 -215.7 253.49 -7.66 137.72 -392.63 -194.65 -159.57 73.74 -210.38 848.25 727.46 -73.5 209.89 -1120.74 48.59zm516.94 -228.75l412.12 -7.54 -318.12 -260.75 -94 268.29z"/>
   <path id="31" class="fil4" d="M16726.83 12621.95l-192.53 369c-38.27,72.92 -69.58,125.93 -94.44,158.54 -24.85,32.85 -54.33,58.19 -88.47,76.52 -34.12,18.33 -72.17,28.43 -114.12,30.55 -41.95,2.1 -82.74,-7.18 -122.61,-28.13 -43.27,-22.62 -76.88,-54.76 -100.82,-97.1 -23.94,-42.11 -34.57,-87.67 -31.86,-136.91 -45.64,47.49 -95.98,76.31 -151.25,85.75 -55.26,9.69 -109.63,0.7 -162.87,-27.22 -42.05,-21.89 -77.6,-53.05 -107.11,-93.19 -29.52,-40.14 -47.4,-83.48 -53.41,-129.55 -6.02,-46.06 1.06,-95.33 21.46,-147.81 12.97,-32.8 50.01,-108.88 111.13,-227.98l163.9 -314.06 922.98 481.58zm-250.86 106.3l-213.43 -111.43 -63.78 122.03c-38.03,72.68 -60.4,118.38 -67.59,137.08 -12.73,33.77 -14.78,64.58 -6.18,92.44 8.84,27.86 28.1,49.37 57.75,65.03 28.68,14.92 55.87,19.16 82.04,12.76 25.93,-6.42 48.9,-24.21 68.92,-53.41 11.81,-17.27 40.45,-69.77 86.42,-157.54l55.84 -106.96zm-367.05 -191.57l-246.74 -129.02 -90.26 172.6c-34.9,67.09 -55.33,110.83 -60.83,130.76 -9.58,30.36 -8.96,59.21 1.33,86.83 10.54,27.6 31.98,50.08 64.79,67.16 27.71,14.45 54.66,19.91 81.08,16.66 26.19,-3.51 50.39,-15.49 72.63,-36.21 21.98,-20.94 55.24,-73.72 99.52,-158.32l78.47 -150.45z"/>
   <path class="fil4" d="M5120.72 15192.26l172.11 122.1 -382.01 538.52c-49.96,70.43 -94.54,120.28 -133.95,149.44 -51.72,37.66 -109.99,56.09 -175.05,55.15 -64.7,-1 -132.95,-26.8 -204.57,-77.6 -83.89,-59.5 -131.82,-128.59 -143.66,-207.49 -12.04,-79.02 14.04,-164.01 77.92,-254.9l176.1 96.36c-32.4,49.89 -49.76,89.02 -51.68,117.71 -3.21,43.52 13.89,78.54 51.48,105.2 37.78,26.81 72.41,35.02 103.62,24.14 31.06,-10.68 71.12,-50.37 119.96,-119.21l389.73 -549.4zm822.68 1649.38l-201.81 -104.53 29.21 -252.04 -371.1 -192.24 -186.01 170.81 -198.15 -102.64 838.55 -739.17 197.94 102.54 -108.64 1117.27zm-152.35 -544.39l48.83 -409.06 -302.32 277.74 253.49 131.32zm501.32 660.68l287.6 -1001.57 196.3 56.36 219.45 789.57 192.74 -671.21 187.44 53.82 -287.59 1001.57 -202.6 -58.18 -216.84 -774.93 -189.05 658.38 -187.44 -53.82zm1265.23 348.43l136.5 -1033.06 209.2 27.64 -53.76 406.87 406.88 53.76 53.76 -406.87 209.21 27.64 -136.5 1033.06 -209.2 -27.64 59.66 -451.6 -406.88 -53.76 -59.67 451.6 -209.2 -27.64zm1292.04 144.05l-20.92 -1041.83 771.19 -15.49 3.53 176.07 -560.21 11.25 4.65 231.35 520.93 -10.45 3.53 176.06 -520.92 10.46 5.66 282.29 580.59 -11.66 3.53 176.07 -791.56 15.89zm2148.79 -205.37l-223.93 38.8 -129.18 -218.39 -411.8 71.35 -44.83 248.53 -219.88 38.1 220.76 -1095.81 219.65 -38.06 589.2 955.48zm-450.57 -341.42l-208.52 -355.29 -72.78 404.03 281.3 -48.74zm818.57 237.48l-321.94 -981.87 200.52 -65.75 267.08 814.55 496.47 -162.79 54.87 167.33 -696.99 228.53zm1181.38 -425.48l-356.53 -789.15 -281.17 127.03 -72.5 -160.48 753.34 -340.34 72.5 160.48 -279.84 126.42 356.52 789.15 -192.31 86.89zm806.15 -426.76l-564.85 -875.66 177.33 -114.39 222.46 344.88 344.89 -222.47 -222.46 -344.88 177.33 -114.39 564.85 875.67 -177.33 114.39 -246.92 -382.8 -344.9 222.47 246.93 382.8 -177.33 114.38z"/>
   <path class="fil5" d="M9134.37 0c5044.81,0 9134.37,4089.56 9134.37,9134.37 0,5044.81 -4089.56,9134.37 -9134.37,9134.37 -5044.81,0 -9134.37,-4089.56 -9134.37,-9134.37 0,-5044.81 4089.56,-9134.37 9134.37,-9134.37zm0 190.55c4939.57,0 8943.82,4004.25 8943.82,8943.82 0,4939.57 -4004.25,8943.82 -8943.82,8943.82 -4939.57,0 -8943.82,-4004.25 -8943.82,-8943.82 0,-4939.57 4004.25,-8943.82 8943.82,-8943.82z"/>
   <path class="fil6" d="M9134.37 2355.6c3743.84,0 6778.78,3034.93 6778.78,6778.78 0,3743.84 -3034.93,6778.78 -6778.78,6778.78 -3743.84,0 -6778.78,-3034.93 -6778.78,-6778.78 0,-3743.84 3034.93,-6778.78 6778.78,-6778.78zm0 141.41c3665.74,0 6637.37,2971.63 6637.37,6637.37 0,3665.74 -2971.63,6637.37 -6637.37,6637.37 -3665.74,0 -6637.37,-2971.63 -6637.37,-6637.37 0,-3665.74 2971.63,-6637.37 6637.37,-6637.37z"/>
  </g>
 </g>
</svg>
